leg39_ForwardTool_states
nRows=6
nColumns=41

# SIMM Motion File Header:
name leg39_ForwardTool_states
datacolumns 41
datarows 6
otherdata 1
range 0.09781246999999997100 0.10108926999999995000
endheader
time	pelvis_tilt	hip_angle_r	knee_angle_r	tib_tx_r	tib_ty_r	pat_angle_r	pat_tx_r	pat_ty_r	ankle_angle_r	subtalar_angle_r	mtp_angle_r	pelvis_tilt_u	hip_angle_r_u	knee_angle_r_u	tib_tx_r_u	tib_ty_r_u	pat_angle_r_u	pat_tx_r_u	pat_ty_r_u	ankle_angle_r_u	subtalar_angle_r_u	mtp_angle_r_u	bifemlh_r.activation	bifemlh_r.fiber_length	bifemsh_r.activation	bifemsh_r.fiber_length	glut_max2_r.activation	glut_max2_r.fiber_length	psoas_r.activation	psoas_r.fiber_length	rect_fem_r.activation	rect_fem_r.fiber_length	vas_int_r.activation	vas_int_r.fiber_length	med_gas_r.activation	med_gas_r.fiber_length	soleus_r.activation	soleus_r.fiber_length	tib_ant_r.activation	tib_ant_r.fiber_length
      0.09781246999999997100	     -0.00000000000000971559	     13.99961606412683300000	    -68.20365947578683600000	      0.00513896228768929990	     -0.47855135885870070000	     17.50803017424987800000	      0.04031030825372326800	     -0.02264445615819718100	      1.42034842533586980000	      0.00000000000000161493	     -0.00000000000001313283	     -0.00000000000034415907	    120.04992938569326000000	     15.52141952572118700000	     -0.00019375052696501071	      0.00503383389702242480	     -0.11974000780710192000	      0.00488462255002393950	     -0.00045382873449773318	     55.63317861454941500000	      0.00000000000004046639	     -0.00000000000021979569	      0.07045764866495235500	      0.07875085309098536800	      0.25521028467026419000	      0.16041340489360637000	      0.02000000000000000000	      0.10496053854711858000	      0.38540234198706175000	      0.09592241980655329100	      0.03085068245521289900	      0.16363036878117024000	      0.02000000000000000000	      0.13458409276553077000	      0.03720578902590274100	      0.07909190769657528700	      0.02000000000000000000	      0.09094690337780927900	      0.34772517578486323000	      0.08548014510730782300
      0.09912318999999997200	     -0.00000000000001017024	     14.15658144872682600000	    -68.18124586040443100000	      0.00513868083195714690	     -0.47854409026330974000	     17.50785697508111500000	      0.04031736124142533400	     -0.02264511194003099700	      1.49275842218094580000	      0.00000000000000166629	     -0.00000000000001341263	     -0.00000000000034298975	    119.45896672963411000000	     18.67730682211451700000	     -0.00023593025847288532	      0.00605653118082858430	     -0.14456841853962288000	      0.00587674848651536550	     -0.00054682488428916306	     54.83427456227749300000	      0.00000000000004408092	     -0.00000000000020248436	      0.07040858079302485300	      0.07893799660772540800	      0.25200670194142200000	      0.16042678512002737000	      0.02000000000000000000	      0.10511535760853644000	      0.38290315509634248000	      0.09580846227611883300	      0.03050088959891716900	      0.16349662303424323000	      0.02000000000000000000	      0.13457584102122300000	      0.03665112694699351700	      0.07918853824589576500	      0.02000000000000000000	      0.09100917956050150200	      0.34533789144899935000	      0.08543565278210951700
      0.09977854999999996600	     -0.00000000000001039582	     14.23477239078178300000	    -68.16848956400809800000	      0.00513851915413413710	     -0.47853995390775250000	     17.50775814334305700000	      0.04032137476319688100	     -0.02264548555257009400	      1.52855087052643170000	      0.00000000000000169625	     -0.00000000000001354414	     -0.00000000000034442136	    119.16050512856945000000	     20.25139855142911900000	     -0.00025753272978073041	      0.00656646805979618170	     -0.15705047814351486000	      0.00637139035192171850	     -0.00059335493488599212	     54.39146944252172500000	      0.00000000000004153349	     -0.00000000000019449863	      0.07038464325755808300	      0.07903211568137374900	      0.25044384885283322000	      0.16043431206539380000	      0.02000000000000000000	      0.10519247725862653000	      0.38168393827513902000	      0.09575164543914827000	      0.03033024476402456500	      0.16342881971692305000	      0.02000000000000000000	      0.13457049994881820000	      0.03638053760483545000	      0.07923688488520118400	      0.02000000000000000000	      0.09104006142150421200	      0.34417326577410912000	      0.08541356506164656000
      0.10010622999999996000	     -0.00000000000001050951	     14.27379433995599500000	    -68.16172477405044100000	      0.00513843297551769270	     -0.47853776048467878000	     17.50770565568127100000	      0.04032350300972906100	     -0.02264568379657037900	      1.54633631628404930000	      0.00000000000000170934	     -0.00000000000001360816	     -0.00000000000035320559	    119.01048153622597000000	     21.03749712023666900000	     -0.00026847614211157503	      0.00682108459105535550	     -0.16331105273280114000	      0.00661835582588217190	     -0.00061663186900072931	     54.16140503233307200000	      0.00000000000004053021	     -0.00000000000018999269	      0.07033685193659998400	      0.07907933463785113400	      0.24971326929561438000	      0.16043828276313701000	      0.02000000000000000000	      0.10523095438129552000	      0.38118763148397283000	      0.09572327371829902900	      0.03024596507997134900	      0.16339468689534267000	      0.02000000000000000000	      0.13456753292208520000	      0.03624689638282247600	      0.07926105873886499200	      0.02000000000000000000	      0.09105543086663787900	      0.34343900405947669000	      0.08540256502325920000
      0.10043390999999996000	     -0.00000000000001062644	     14.31276704247635400000	    -68.15470249742138300000	      0.00513834319466553980	     -0.47853548366707699000	     17.50765111427463700000	      0.04032571214323305700	     -0.02264588966948351600	      1.56404548590441750000	      0.00000000000000172284	     -0.00000000000001366916	     -0.00000000000036227881	    118.85993289848835000000	     21.82297715317351500000	     -0.00027951974543884628	      0.00707546918957362420	     -0.16958569548209496000	      0.00686508647889750350	     -0.00063991842247088505	     53.92578550456096300000	      0.00000000000003568100	     -0.00000000000017268058	      0.07021848641296132800	      0.07912707407541202900	      0.24907012664084147000	      0.16044236968313821000	      0.02000000000000000000	      0.10526937542450969000	      0.38090421190516111000	      0.09569488030438982900	      0.03016237299483823200	      0.16336040050074829000	      0.02000000000000000000	      0.13456437051938872000	      0.03611434547766307500	      0.07928523023204715700	      0.02000000000000000000	      0.09107075001032184600	      0.34239690738585943000	      0.08539165889325393800
      0.10108926999999995000	     -0.00000000000001086175	     14.39056405573819600000	    -68.13988626694364800000	      0.00513815269071940790	     -0.47853068014436712000	     17.50753585087822400000	      0.04033037277073635300	     -0.02264632431642591900	      1.59922679962101210000	      0.00000000000000174962	     -0.00000000000001377004	     -0.00000000000036055428	    118.55740927496764000000	     23.39219266667401300000	     -0.00030192462841467291	      0.00758357397481450400	     -0.18218086567919481000	      0.00735787247123588420	     -0.00068652750617818957	     53.43411816370800700000	      0.00000000000004623591	     -0.00000000000016556292	      0.06998464455595754300	      0.07922412618525712100	      0.24779953983408207000	      0.16045088338627467000	      0.02000000000000000000	      0.10534604757338906000	      0.38034429075089926000	      0.09563800511386182100	      0.02999722922816154500	      0.16329136857302290000	      0.02000000000000000000	      0.13455746552618097000	      0.03585247910933921800	      0.07933355818446558000	      0.02000000000000000000	      0.09110122986036105200	      0.34033815063097828000	      0.08537016845435439800
